<?xml version="1.0" encoding="UTF-8"?>
<svg width="16px" height="11px" viewBox="0 0 16 11" version="1.1" xmlns="http://www.w3.org/2000/svg" xmlns:xlink="http://www.w3.org/1999/xlink">
    <!-- Generator: Sketch 46.2 (44496) - http://www.bohemiancoding.com/sketch -->
    <title>FoodGenius-kontakt-mail</title>
    <desc>Created with Sketch.</desc>
    <defs></defs>
    <g id="Symbols" stroke="none" stroke-width="1" fill="none" fill-rule="evenodd">
        <g id="footer" transform="translate(-410.000000, -66.000000)" fill="#FFFFFF">
            <g id="FoodGenius-kontakt-mail" transform="translate(410.000000, 66.000000)">
                <path d="M1.58908207,9.82277061 C1.37894934,9.82277061 1.18358572,9.75920733 1.02056459,9.6505889 L5.60104692,5.18134231 L8,7.1456347 L10.3989531,5.18134231 L14.9794354,9.6505889 C14.8164143,9.75920733 14.6210507,9.82277061 14.4109179,9.82277061 L1.58908207,9.82277061 Z M0.655636568,9.22303234 C0.5954384,9.09254066 0.560852496,8.94746682 0.560852496,8.79454104 L0.560852496,1.58908207 C0.560852496,1.42811741 0.599177416,1.27593943 0.665544962,1.14021312 L5.16432978,4.82389232 L0.655636568,9.22303234 Z M14.4109179,0.560852496 C14.6131987,0.560852496 14.8014582,0.62030286 14.9605534,0.721630211 L8,6.42082632 L1.03944663,0.721630211 C1.19872873,0.62030286 1.38680127,0.560852496 1.58908207,0.560852496 L14.4109179,0.560852496 Z M10.8356702,4.82370537 L15.334455,1.14002617 C15.4006356,1.27593943 15.4391475,1.42793045 15.4391475,1.58889512 L15.4391475,8.79454104 C15.4391475,8.94746682 15.4045616,9.09254066 15.3443634,9.22303234 L10.8356702,4.82370537 Z M14.4109179,0 L1.58908207,0 C0.712843522,0 0,0.712843522 0,1.58908207 L0,8.79472799 C0,9.67096654 0.712843522,10.3838101 1.58908207,10.3838101 L14.4109179,10.3838101 C15.2871565,10.3838101 16,9.67096654 16,8.79472799 L16,1.58908207 C16,0.712843522 15.2871565,0 14.4109179,0 L14.4109179,0 Z" id="Page-1"></path>
            </g>
        </g>
    </g>
</svg>