<?xml version="1.0" encoding="UTF-8"?>
<svg width="19px" height="22px" viewBox="0 0 19 22" version="1.1" xmlns="http://www.w3.org/2000/svg" xmlns:xlink="http://www.w3.org/1999/xlink">
    <!-- Generator: Sketch 46.2 (44496) - http://www.bohemiancoding.com/sketch -->
    <title>FoodGenius-call-icon</title>
    <desc>Created with Sketch.</desc>
    <defs></defs>
    <g id="Symbols" stroke="none" stroke-width="1" fill="none" fill-rule="evenodd">
        <g id="menu" transform="translate(-994.000000, -15.000000)" fill="#000000">
            <g id="FoodGenius-call-icon" transform="translate(993.000000, 15.000000)">
                <g id="Page-1" transform="translate(10.348076, 11.660254) rotate(-330.000000) translate(-10.348076, -11.660254) translate(4.348076, 1.660254)">
                    <path d="M0.626161009,18.0280392 L0.626161009,15.2143983 L10.4360168,15.2143983 L10.4360168,18.0280392 C10.4360168,18.3198242 10.2064244,18.5490838 9.91421598,18.5490838 L1.14796185,18.5490838 C0.855753379,18.5490838 0.626161009,18.3198242 0.626161009,18.0280392 L0.626161009,18.0280392 Z M1.14796185,0.62514932 L9.91421598,0.62514932 C10.2064244,0.62514932 10.4360168,0.854617366 10.4360168,1.14619393 L10.4360168,3.54299912 L0.626161009,3.54299912 L0.626161009,1.14619393 C0.626161009,0.854617366 0.855753379,0.62514932 1.14796185,0.62514932 L1.14796185,0.62514932 Z M0.626161009,14.5891448 L10.4360168,14.5891448 L10.4360168,4.16825265 L0.626161009,4.16825265 L0.626161009,14.5891448 Z M9.91421598,19.1743374 C10.540377,19.1743374 11.0621778,18.6532927 11.0621778,18.0280392 L11.0621778,1.14619393 C11.0621778,0.520940399 10.540377,-0.000104208922 9.91421598,-0.000104208922 L1.14796185,-0.000104208922 C0.521800841,-0.000104208922 0,0.520940399 0,1.14619393 L0,18.0280392 C0,18.6532927 0.521800841,19.1743374 1.14796185,19.1743374 L9.91421598,19.1743374 Z" id="Fill-1"></path>
                    <path d="M5.11364824,2.29259627 L5.94852959,2.29259627 C6.11550586,2.29259627 6.26161009,2.14670378 6.26161009,1.97996951 C6.26161009,1.81323524 6.11550586,1.66734274 5.94852959,1.66734274 L5.11364824,1.66734274 C4.94667197,1.66734274 4.80056774,1.81323524 4.80056774,1.97996951 C4.80056774,2.14670378 4.94667197,2.29259627 5.11364824,2.29259627" id="Fill-4"></path>
                    <path d="M4.69620757,17.2985768 L6.36597026,17.2985768 C6.53294653,17.2985768 6.67905076,17.1528927 6.67905076,16.98595 C6.67905076,16.8192157 6.53294653,16.6733232 6.36597026,16.6733232 L4.69620757,16.6733232 C4.5292313,16.6733232 4.38312706,16.8192157 4.38312706,16.98595 C4.38312706,17.1528927 4.5292313,17.2985768 4.69620757,17.2985768" id="Fill-6"></path>
                </g>
            </g>
        </g>
    </g>
</svg>