<?xml version="1.0" encoding="UTF-8"?>
<svg width="27px" height="17px" viewBox="0 0 27 17" version="1.1" xmlns="http://www.w3.org/2000/svg" xmlns:xlink="http://www.w3.org/1999/xlink">
    <!-- Generator: Sketch 46.2 (44496) - http://www.bohemiancoding.com/sketch -->
    <title>FoodGenius-konfigurator-kontakt-button</title>
    <desc>Created with Sketch.</desc>
    <defs></defs>
    <g id="konfigurator" stroke="none" stroke-width="1" fill="none" fill-rule="evenodd">
        <g id="Pakete-Copy-2" transform="translate(-970.000000, -1428.000000)" fill="#4C4B4B">
            <path d="M972.598747,1444.06392 C972.255101,1444.06392 971.935608,1443.95997 971.669007,1443.78234 L979.159818,1436.47344 L983.083008,1439.6858 L987.006198,1436.47344 L994.497009,1443.78234 C994.230408,1443.95997 993.910915,1444.06392 993.567269,1444.06392 L972.598747,1444.06392 Z M971.072212,1443.08313 C970.973766,1442.86972 970.917205,1442.63247 970.917205,1442.38238 L970.917205,1430.59875 C970.917205,1430.33551 970.97988,1430.08664 971.088416,1429.86468 L978.445621,1435.88888 L971.072212,1443.08313 Z M993.567269,1428.9172 C993.898074,1428.9172 994.205949,1429.01443 994.46613,1429.18014 L983.083008,1438.50047 L971.699886,1429.18014 C971.960372,1429.01443 972.267941,1428.9172 972.598747,1428.9172 L993.567269,1428.9172 Z M987.720395,1435.88857 L995.077599,1429.86437 C995.18583,1430.08664 995.248811,1430.3352 995.248811,1430.59844 L995.248811,1442.38238 C995.248811,1442.63247 995.19225,1442.86972 995.093803,1443.08313 L987.720395,1435.88857 Z M993.567269,1428 L972.598747,1428 C971.165767,1428 970,1429.16577 970,1430.59875 L970,1442.38269 C970,1443.81567 971.165767,1444.98143 972.598747,1444.98143 L993.567269,1444.98143 C995.000248,1444.98143 996.166016,1443.81567 996.166016,1442.38269 L996.166016,1430.59875 C996.166016,1429.16577 995.000248,1428 993.567269,1428 L993.567269,1428 Z" id="FoodGenius-konfigurator-kontakt-button"></path>
        </g>
    </g>
</svg>