<?xml version="1.0" encoding="UTF-8"?>
<svg width="10px" height="17px" viewBox="0 0 10 17" version="1.1" xmlns="http://www.w3.org/2000/svg" xmlns:xlink="http://www.w3.org/1999/xlink">
    <!-- Generator: Sketch 46.2 (44496) - http://www.bohemiancoding.com/sketch -->
    <title>FoodGenius-kontakt-telefonnummer</title>
    <desc>Created with Sketch.</desc>
    <defs></defs>
    <g id="Symbols" stroke="none" stroke-width="1" fill="none" fill-rule="evenodd">
        <g id="footer" transform="translate(-411.000000, -30.000000)" fill="#FFFFFF">
            <g id="FoodGenius-kontakt-telefonnummer" transform="translate(411.000000, 30.000000)">
                <g id="Page-1" transform="translate(5.000000, 8.500000) rotate(-360.000000) translate(-5.000000, -8.500000) ">
                    <path d="M4.26137353,1.94870683 L4.95710799,1.94870683 C5.09625488,1.94870683 5.21800841,1.82469822 5.21800841,1.68297408 C5.21800841,1.54124995 5.09625488,1.41724133 4.95710799,1.41724133 L4.26137353,1.41724133 C4.12222664,1.41724133 4.00047311,1.54124995 4.00047311,1.68297408 C4.00047311,1.82469822 4.12222664,1.94870683 4.26137353,1.94870683" id="Fill-4"></path>
                    <path d="M0.521800841,15.3238333 L0.521800841,12.9322386 L8.69668068,12.9322386 L8.69668068,15.3238333 C8.69668068,15.5718506 8.50535371,15.7667213 8.26184665,15.7667213 L0.956634875,15.7667213 C0.713127816,15.7667213 0.521800841,15.5718506 0.521800841,15.3238333 L0.521800841,15.3238333 Z M0.956634875,0.531376922 L8.26184665,0.531376922 C8.50535371,0.531376922 8.69668068,0.726424761 8.69668068,0.974264839 L8.69668068,3.01154926 L0.521800841,3.01154926 L0.521800841,0.974264839 C0.521800841,0.726424761 0.713127816,0.531376922 0.956634875,0.531376922 L0.956634875,0.531376922 Z M0.521800841,12.4007731 L8.69668068,12.4007731 L8.69668068,3.54301476 L0.521800841,3.54301476 L0.521800841,12.4007731 Z M8.26184665,16.2981868 C8.78364749,16.2981868 9.21848152,15.8552988 9.21848152,15.3238333 L9.21848152,0.974264839 C9.21848152,0.442799339 8.78364749,-8.85775833e-05 8.26184665,-8.85775833e-05 L0.956634875,-8.85775833e-05 C0.434834034,-8.85775833e-05 0,0.442799339 0,0.974264839 L0,15.3238333 C0,15.8552988 0.434834034,16.2981868 0.956634875,16.2981868 L8.26184665,16.2981868 Z" id="Fill-1"></path>
                    <path d="M3.91350631,14.7037903 L5.30497522,14.7037903 C5.44412211,14.7037903 5.56587564,14.5799588 5.56587564,14.4380575 C5.56587564,14.2963334 5.44412211,14.1723248 5.30497522,14.1723248 L3.91350631,14.1723248 C3.77435942,14.1723248 3.65260589,14.2963334 3.65260589,14.4380575 C3.65260589,14.5799588 3.77435942,14.7037903 3.91350631,14.7037903" id="Fill-6"></path>
                </g>
            </g>
        </g>
    </g>
</svg>